<?xml version="1.0" encoding="UTF-8" standalone="no"?>
<!-- Creator: CorelDRAW X8 -->

<svg
   xml:space="preserve"
   width="165.374mm"
   height="33.269mm"
   version="1.0"
   style="shape-rendering:geometricPrecision; text-rendering:geometricPrecision; image-rendering:optimizeQuality; fill-rule:evenodd; clip-rule:evenodd"
   viewBox="0 0 16537 3327"
   id="svg91"
   sodipodi:docname="logo.svg"
   inkscape:version="1.1.2 (0a00cf5339, 2022-02-04)"
   xmlns:inkscape="http://www.inkscape.org/namespaces/inkscape"
   xmlns:sodipodi="http://sodipodi.sourceforge.net/DTD/sodipodi-0.dtd"
   xmlns="http://www.w3.org/2000/svg"
   xmlns:svg="http://www.w3.org/2000/svg"><sodipodi:namedview
   id="namedview93"
   pagecolor="#ffffff"
   bordercolor="#666666"
   borderopacity="1.0"
   inkscape:pageshadow="2"
   inkscape:pageopacity="0.0"
   inkscape:pagecheckerboard="0"
   inkscape:document-units="mm"
   showgrid="false"
   inkscape:zoom="1.6788588"
   inkscape:cx="312.71242"
   inkscape:cy="63.138127"
   inkscape:window-width="1920"
   inkscape:window-height="1012"
   inkscape:window-x="0"
   inkscape:window-y="32"
   inkscape:window-maximized="1"
   inkscape:current-layer="Camada_x0020_1" />
 <defs
   id="defs4">
  <style
   type="text/css"
   id="style2">
   <![CDATA[
    .fil0 {fill:#FEFEFE}
   ]]>
  </style>
 
   
   
   
   
   
   
  
    
    
   
     
     
     
     
     
     
     
     
     
     
     
    </defs>
 <g
   id="Camada_x0020_1"
   inkscape:label="Camada 1">
  <metadata
   id="CorelCorpID_0Corel-Layer" />
  <path
   class="fil0"
   d="m 3200,2677 c 104,59 130,34 253,37 133,-19 150,-12 308,-46 32,-7 67,-19 96,-21 l 143,208 c -24,102 -222,389 105,460 176,39 506,-28 641,-65 331,-90 582,-242 860,-408 l 111,-72 c -14,-19 -151,-76 -176,-90 -47,-27 -127,-68 -173,-101 -103,-75 -213,-156 -259,-287 -60,-172 55,-341 141,-501 117,-217 222,-473 226,-724 l -8,-129 c -4,-34 -15,-82 -24,-113 C 5401,676 5346,589 5240,483 4716,-42 3498,78 3070,637 c -144,187 -196,383 -168,630 16,147 157,166 115,280 -52,142 -284,347 -183,438 31,27 94,56 134,68 22,6 40,7 56,15 -6,68 -37,77 33,124 -44,65 -73,79 31,170 l 53,44 c -6,79 -24,219 59,271 z"
   id="path7"
   style="fill:#ffffff" /><path
   class="fil0"
   d="m 286,150 c 0,140 91,717 113,863 l 117,735 c 8,44 -6,54 -24,90 -74,149 -169,335 -236,493 -24,59 -48,118 -68,178 -73,220 -105,359 -150,586 -7,36 -28,188 -38,209 309,0 596,6 904,6 -16,-24 -47,-33 -76,-47 -30,-15 -52,-27 -82,-42 -87,-43 -274,-150 -337,-228 -10,-12 -20,-25 -29,-37 -69,-99 -19,-223 13,-352 31,-127 91,-313 133,-439 12,-38 23,-69 36,-107 13,-39 28,-69 36,-107 l 163,384 c 44,100 250,579 338,579 55,0 11,-215 8,-236 C 974,1896 730,954 537,178 526,132 495,45 494,0 441,0 398,23 362,43 329,62 286,102 286,150 Z"
   id="path9"
   style="fill:#b13437;fill-opacity:1" /><path
   class="fil0"
   d="m 2042,1093 c 0,196 -13,214 96,340 75,87 4,161 -78,283 -32,49 -109,157 -109,222 0,47 107,96 150,110 22,7 53,12 71,20 -6,27 -37,100 26,117 -2,29 -22,35 -32,66 -18,52 87,131 123,155 -31,66 -26,312 169,312 126,0 249,-19 293,-19 v -13 c -86,-23 -103,-172 -78,-280 -15,-10 -17,-15 -31,-27 -33,-29 -93,-67 -93,-116 0,-35 25,-50 39,-71 -75,-51 -36,-81 -32,-130 -56,-5 -221,-66 -221,-124 0,-66 77,-170 108,-217 180,-271 112,-226 25,-352 -49,-73 -42,-176 -42,-270 0,-229 147,-473 313,-604 200,-158 381,-238 634,-296 35,-8 77,-17 108,-22 39,-6 83,-14 122,-14 v -7 c -37,0 -45,-6 -85,-6 -247,0 -415,1 -651,77 -38,12 -66,21 -102,34 -226,82 -435,215 -577,412 -67,93 -146,263 -146,420 z"
   id="path11"
   style="fill:#ffffff" /><path
   class="fil0"
   d="m 3453,2714 c -123,-3 -149,22 -253,-37 -44,17 -109,17 -156,28 86,164 124,103 78,208 -84,188 -110,364 153,407 110,18 254,-10 321,-10 -9,-8 -9,-8 -24,-15 -13,-6 -18,-6 -32,-13 -126,-61 -94,-193 -59,-302 11,-35 33,-93 50,-125 l -97,-137 z"
   id="path13"
   style="fill:#ffffff" /><path
   class="fil0"
   d="m 976,3187 c 66,0 108,-7 175,-7 192,0 566,-11 709,91 32,22 23,40 72,45 63,7 160,1 227,1 -103,-194 -270,-219 -485,-250 -121,-18 -576,-10 -731,-10 z"
   id="path15"
   style="fill:#b13437;fill-opacity:1" /><path
   class="fil0"
   d="m 497.67304,150 c 0,140 91,717 113,863 l 117,735 c 8,44 -6,54 -24,90 -74,149 -169,335 -236,493 -24,59 -48,118 -68,178 -73,220 -105,359 -150.00001,586 -7,36 -28,188 -38,209 309.00001,0 596.00001,6 904.00007,6 -16,-24 -47,-33 -76.0001,-47 -30,-15 -51.99996,-27 -81.99996,-42 -87,-43 -274,-150 -337,-228 -10,-12 -20,-25 -29,-37 -69,-99 -19,-223 13,-352 31,-127 91,-313 133,-439 12,-38 23,-69 36,-107 13,-39 28,-69 36,-107 l 163,384 c 43.99996,100 250.00016,579 338.00016,579 55,0 11,-215 8,-236 -133,-782 -377.00016,-1724 -570.00016,-2500 -11,-46 -42,-133 -43,-178 -53,0 -96,23 -132,43 -33,19 -76,59 -76,107 z"
   id="path9-4"
   style="clip-rule:evenodd;fill:#ffffff;fill-opacity:1;fill-rule:evenodd;image-rendering:optimizeQuality;shape-rendering:geometricPrecision;text-rendering:geometricPrecision" /><path
   class="fil0"
   d="m 1187.6732,3187 c 66,0 108,-7 175,-7 192,0 566,-11 709,91 32,22 23,40 72,45 63,7 160,1 227,1 -103,-194 -270,-219 -485,-250 -121,-18 -576,-10 -731.0001,-10 z"
   id="path15-8"
   style="clip-rule:evenodd;fill:#ffffff;fill-opacity:1;fill-rule:evenodd;image-rendering:optimizeQuality;shape-rendering:geometricPrecision;text-rendering:geometricPrecision" /><path
   class="fil0"
   d="m 10749,2867 h 260 v -586 h 612 v -214 c 0,-15 -5,-20 -20,-20 h -592 v -377 h 670 v -228 h -930 z"
   id="path17"
   style="fill:#ffffff" /><path
   class="fil0"
   d="m 12141,2691 c -96,0 -124,-37 -124,-124 0,-88 86,-117 176,-117 h 260 c 0,161 17,93 -138,188 -40,24 -111,53 -174,53 z m -338,-501 v 20 h 227 c 3,-123 90,-176 215,-176 190,0 208,112 208,247 -165,0 -415,-20 -538,60 -242,157 -142,539 141,539 133,0 202,-17 319,-85 24,-14 47,-32 78,-39 v 111 h 228 v -677 c 0,-217 -189,-351 -397,-351 h -65 c -225,0 -416,127 -416,351 z"
   id="path19"
   style="fill:#ffffff" /><path
   class="fil0"
   d="m 14274,2255 v 26 h -449 c 0,-101 29,-186 115,-223 114,-49 334,-27 334,197 z m -177,631 h -70 c -106,-6 -211,-38 -292,-98 -166,-124 -131,-336 -131,-552 0,-174 110,-311 271,-367 26,-9 53,-16 83,-21 68,-11 130,-10 194,2 131,26 253,94 306,221 50,118 37,238 37,366 h -670 c 0,80 3,142 54,194 23,24 28,29 62,41 116,41 327,31 327,-137 257,0 237,-20 219,76 -32,172 -205,265 -390,275 z"
   id="path21"
   style="fill:#ffffff" /><path
   class="fil0"
   d="m 14690,2229 c 0,222 -32,423 126,558 75,64 188,97 302,99 h 29 c 108,-2 214,-33 286,-90 103,-82 129,-176 129,-313 h -228 c 0,175 -100,195 -234,195 -216,0 -182,-252 -182,-403 0,-164 71,-228 221,-228 139,0 195,76 195,202 h 228 c 0,-134 -24,-238 -135,-321 -43,-32 -77,-48 -136,-65 -256,-78 -601,32 -601,366 z"
   id="path23"
   style="fill:#ffffff" /><path
   class="fil0"
   d="m 9338,1956 c 38,0 81,9 109,22 104,47 145,148 145,271 h -534 c 24,-101 29,-130 86,-201 38,-49 109,-92 194,-92 z m -462,390 c 0,171 37,301 138,402 90,90 206,138 376,138 114,0 249,-28 325,-65 -1,-49 -25,-91 -26,-137 -118,28 -111,53 -292,53 -217,0 -339,-140 -339,-352 h 709 c 31,-130 -19,-345 -109,-437 -138,-142 -328,-162 -504,-85 -56,24 -106,66 -143,111 -86,103 -135,231 -135,372 z"
   id="path25"
   style="fill:#ff2a2a" /><path
   class="fil0"
   d="m 15744,2106 c 0,120 -3,198 124,273 159,93 434,42 457,193 13,90 -71,152 -165,152 -71,0 -144,5 -200,-47 -16,-15 -28,-32 -35,-56 -23,-77 52,-67 -181,-67 -29,0 -17,23 -13,65 6,72 43,141 96,184 68,53 173,81 278,83 h 33 c 101,-2 199,-28 260,-74 35,-27 63,-52 83,-93 90,-178 24,-353 -200,-409 -118,-29 -348,-33 -348,-159 0,-107 73,-149 188,-149 244,0 167,169 215,169 h 175 c 0,-151 -59,-256 -204,-304 -110,-36 -322,-35 -425,32 -36,23 -64,45 -90,79 -18,24 -48,89 -48,128 z"
   id="path27"
   style="fill:#ffffff" /><path
   class="fil0"
   d="m 7257,2008 -7,-162 h -169 c 0,66 7,108 7,175 v 839 h 188 v -611 c 0,-308 495,-438 495,39 v 572 h 188 v -520 c 0,-188 -22,-384 -184,-473 -175,-96 -385,-43 -501,119 -5,6 -4,6 -8,11 -10,13 -3,5 -9,11 z"
   id="path29"
   style="fill:#ff2a2a" /><path
   class="fil0"
   d="m 12960,1859 h -156 v 182 c 0,33 65,19 156,19 v 488 c 0,185 154,319 352,319 h 175 v -202 c -108,0 -286,23 -286,-130 v -475 h 260 c 15,0 20,-4 20,-19 v -182 h -280 v -274 h -241 z"
   id="path31"
   style="fill:#ffffff" /><path
   class="fil0"
   d="m 8297,1598 v 248 h -156 v 143 h 156 v 585 c 0,195 86,312 280,312 71,0 102,-13 156,-26 0,-57 -6,-93 -6,-143 -90,2 -247,77 -247,-195 v -533 h 266 v -143 h -266 v -293 c -34,1 -60,13 -90,21 -28,7 -64,18 -93,24 z"
   id="path33"
   style="fill:#ff2a2a" /><polygon
   class="fil0"
   points="6782,1442 6594,1442 6594,2860 6782,2860 "
   id="polygon35"
   style="fill:#ff2a2a" /><path
   class="fil0"
   d="m 10164,2041 c 0,-33 1,-66 0,-98 0,-38 -7,-54 -7,-97 h -162 c 0,96 6,169 6,266 v 748 h 189 v -572 c 0,-145 101,-293 254,-293 28,0 25,7 58,7 v -163 c 0,-49 -165,-6 -229,50 -87,78 -80,119 -109,152 z"
   id="path37"
   style="fill:#ff2a2a" /><g
   id="g85"
   style="fill:#ffffff">
     <path
   class="fil0"
   d="m 6594,1072 h 45 V 662 c 14,16 150,382 156,410 h 52 c 3,-31 113,-322 137,-383 l 13,383 h 45 V 577 c -79,0 -65,-6 -80,43 l -121,328 c -9,22 -10,40 -26,52 L 6659,577 h -65 z"
   id="path41"
   style="fill:#ffffff" />
     <path
   class="fil0"
   d="m 14229,1072 h 45 V 655 l 22,51 c 7,19 12,33 19,52 l 115,314 h 52 l 128,-354 c 9,-25 7,-33 22,-50 v 404 h 45 V 577 h -65 l -78,215 c -13,33 -26,72 -38,105 -7,19 -13,33 -19,52 -9,26 -8,37 -27,51 -2,-25 -27,-79 -37,-106 l -102,-269 c -19,-53 1,-48 -82,-48 z"
   id="path43"
   style="fill:#ffffff" />
     <path
   class="fil0"
   d="m 12830,812 c 0,80 11,135 50,191 70,103 228,101 293,47 53,-43 54,-95 54,22 h 39 V 818 h -208 v 46 h 163 c 0,94 -53,175 -143,175 h -46 c -92,0 -150,-99 -150,-195 v -52 c 0,-216 262,-225 316,-107 19,42 -4,42 62,42 0,-213 -430,-248 -430,85 z"
   id="path45"
   style="fill:#ffffff" />
     <path
   class="fil0"
   d="m 9318,1072 h 46 V 662 c 25,17 185,274 209,311 74,110 48,99 123,99 V 577 h -52 V 987 L 9402,624 c -34,-52 -22,-47 -84,-47 z"
   id="path47"
   style="fill:#ffffff" />
     <path
   class="fil0"
   d="m 7719,812 h -98 V 623 c 146,0 254,-26 254,97 0,84 -73,92 -156,92 z m -150,260 h 52 V 851 c 75,0 101,-2 176,6 87,10 50,96 78,215 h 58 c -22,-43 -18,-78 -25,-132 -6,-52 -6,-92 -53,-102 27,-37 72,-33 72,-137 0,-156 -215,-124 -358,-124 z"
   id="path49"
   style="fill:#ffffff" />
     <path
   class="fil0"
   d="m 13520,812 h -104 V 623 c 118,0 253,-26 253,91 0,83 -67,98 -149,98 z m -156,260 h 52 V 851 c 55,0 136,-3 187,7 57,12 48,100 56,166 7,57 3,48 62,48 -27,-117 -9,-218 -71,-234 12,-18 71,-47 71,-124 0,-169 -200,-137 -357,-137 z"
   id="path51"
   style="fill:#ffffff" />
     <path
   class="fil0"
   d="m 12037,812 h -98 V 623 c 182,0 254,-25 254,110 0,32 -25,58 -51,67 -20,7 -74,12 -105,12 z m -150,-215 v 475 h 52 V 851 c 75,0 102,-2 176,6 70,8 59,58 66,129 2,23 10,62 12,86 h 59 c -32,-60 -14,-137 -37,-198 -17,-42 -26,-17 -35,-49 83,-23 121,-248 -91,-248 h -182 c -15,0 -20,5 -20,20 z"
   id="path53"
   style="fill:#ffffff" />
     <path
   class="fil0"
   d="m 16134,825 c 0,-107 59,-215 163,-215 98,0 160,39 184,141 9,42 8,80 4,125 -18,220 -351,246 -351,-51 z m -52,0 c 0,127 78,260 195,260 h 59 c 119,0 201,-112 201,-234 v -5 -4 c 0,-87 -2,-141 -65,-213 -104,-119 -390,-89 -390,196 z"
   id="path55"
   style="fill:#ffffff" />
     <path
   class="fil0"
   d="m 8831,851 c 0,-128 33,-241 182,-241 207,0 218,348 72,416 -129,60 -254,-33 -254,-175 z m -52,-39 c 0,143 64,273 201,273 h 52 c 260,0 289,-521 -26,-521 -140,0 -227,109 -227,248 z"
   id="path57"
   style="fill:#ffffff" />
     <path
   class="fil0"
   d="m 12362,831 c 0,-60 12,-115 42,-154 99,-130 309,-65 309,115 v 65 c 0,190 -226,245 -309,121 -24,-35 -42,-91 -42,-147 z m -52,-6 c 0,70 20,134 51,176 114,155 404,98 404,-150 v -46 c 0,-315 -455,-337 -455,20 z"
   id="path59"
   style="fill:#ffffff" />
     <path
   class="fil0"
   d="m 15386,1078 c 0,-11 19,-9 8,0 0,0 0,0 0,0 -10,1 -8,14 -8,0 z m -201,-253 c 0,123 63,260 195,260 v 52 l 58,6 c 4,17 25,52 -39,52 -27,0 -60,-4 -78,-13 v 33 c 58,13 163,37 163,-52 0,-50 -39,-50 -78,-59 v -19 c 38,0 51,1 81,-11 68,-26 114,-88 114,-165 -68,0 -44,1 -58,47 -4,16 -18,38 -29,49 -69,69 -277,73 -277,-180 0,-286 299,-257 312,-98 h 45 c 0,-220 -409,-249 -409,98 z"
   id="path61"
   style="fill:#ffffff" />
     <path
   class="fil0"
   d="m 10470,1033 c -15,0 -20,-5 -20,-20 V 623 c 166,0 293,-30 293,208 0,144 -48,193 -156,195 -38,1 -70,7 -117,7 z m -65,39 c 143,0 284,26 347,-76 74,-120 76,-419 -165,-419 h -182 z"
   id="path63"
   style="fill:#ffffff" />
     <polygon
   class="fil0"
   points="10931,838 11185,838 11185,798 10931,798 10931,623 11205,623 11205,577 10879,577 10879,1072 11218,1072 11218,1033 10931,1033 "
   id="polygon65"
   style="fill:#ffffff" />
     <path
   class="fil0"
   d="m 7309,636 44,118 c 15,40 30,87 47,123 h -182 z m -215,436 h 52 c 3,-32 43,-112 52,-150 h 221 c 2,19 17,54 25,73 8,23 23,56 28,77 h 52 L 7384,704 c -15,-40 -31,-93 -49,-127 h -59 l -91,248 c -16,40 -29,81 -46,122 -14,35 -36,86 -45,125 z"
   id="path67"
   style="fill:#ffffff" />
     <path
   class="fil0"
   d="m 9956,636 91,241 h -182 z m -215,436 h 52 l 52,-150 h 221 l 52,150 h 52 c -2,-29 -34,-98 -44,-125 L 9988,577 h -58 c -17,36 -32,83 -47,123 -14,39 -31,79 -47,122 z"
   id="path69"
   style="fill:#ffffff" />
     <path
   class="fil0"
   d="m 13962,636 c 16,24 88,226 91,241 h -182 l 69,-179 c 8,-20 18,-44 22,-62 z m -215,436 h 52 c 11,-22 50,-126 52,-150 h 222 l 52,150 h 52 c -2,-23 -34,-100 -44,-126 l -138,-369 h -59 c -40,83 -142,398 -189,495 z"
   id="path71"
   style="fill:#ffffff" />
     <path
   class="fil0"
   d="m 14938,642 74,173 c 8,21 15,45 23,62 h -182 c 4,-18 13,-39 20,-58 z m -209,430 h 52 c 13,-53 41,-99 52,-150 h 222 c 12,53 40,99 52,150 h 52 c -4,-18 -15,-42 -23,-63 -8,-22 -15,-41 -23,-61 l -143,-371 h -58 c -3,25 -33,97 -44,126 l -93,245 c -14,36 -37,86 -46,124 z"
   id="path73"
   style="fill:#ffffff" />
     <path
   class="fil0"
   d="m 8174,636 44,119 c 15,39 29,88 47,122 h -182 c 10,-42 48,-132 66,-182 3,-8 6,-18 10,-29 l 12,-26 c 1,-1 2,-3 3,-4 z m -215,436 h 52 c 2,-19 44,-132 52,-150 h 221 l 52,150 h 52 C 8347,986 8241,663 8200,577 h -59 c -16,70 -179,464 -182,495 z"
   id="path75"
   style="fill:#ffffff" />
     <path
   class="fil0"
   d="m 15835,642 h 13 c 2,25 30,90 40,117 6,17 15,35 22,55 8,21 18,45 23,63 h -183 z m -208,430 h 52 c 12,-51 40,-97 52,-150 h 221 c 12,50 41,100 52,150 h 52 l -45,-124 c -16,-39 -134,-340 -137,-371 h -59 z"
   id="path77"
   style="fill:#ffffff" />
     <path
   class="fil0"
   d="m 11588,818 c -85,0 -65,29 -65,-195 127,0 241,-24 241,97 0,93 -84,98 -176,98 z m -110,254 h 45 V 864 c 66,0 166,0 219,-22 22,-10 37,-23 49,-42 49,-70 39,-223 -138,-223 h -175 z"
   id="path79"
   style="fill:#ffffff" />
     <path
   class="fil0"
   d="m 8388,623 h 150 v 449 h 52 V 623 c 134,0 156,14 156,-26 0,-15 -4,-20 -19,-20 h -339 z"
   id="path81"
   style="fill:#ffffff" />
     <path
   class="fil0"
   d="m 15815,447 c -38,0 -57,34 -65,65 43,0 29,-3 52,-26 18,2 135,60 144,-45 -62,0 -14,19 -59,23 -18,2 -48,-17 -72,-17 z"
   id="path83"
   style="fill:#ffffff" />
    </g>
 </g>
</svg>
